<svg width="1220" height="297" viewBox="0 0 1220 297" fill="none" xmlns="http://www.w3.org/2000/svg">
<ellipse cx="204.593" cy="148.5" rx="127.633" ry="128.666" fill="#00F48D"/>
<path d="M202.199 58.4881C202.979 57.0322 203.909 54.478 203.909 54.478C203.909 54.478 206.211 58.613 207.244 60.4284C208.226 62.1568 208.548 62.663 209.443 64.4385C210.683 66.8999 213.243 70.9064 213.243 70.9064L219.845 81.7966L227.679 93.6733L236.992 109.326L245.012 123.426L251.351 135.327C251.351 135.327 253.923 141.363 255.587 145.54C257.195 149.577 259.759 156.282 259.759 156.282C259.759 156.282 261.871 162.595 262.734 166.76C263.336 169.664 263.663 171.308 263.899 174.263C264.152 177.436 264.42 182.283 264.42 182.283C264.42 182.283 264.151 187.232 263.899 190.304C263.613 193.78 262.346 199.1 262.346 199.1C262.346 199.1 258.954 209.892 255.102 215.916C252.05 220.69 245.789 227.041 245.789 227.041C245.789 227.041 240.92 232.175 237.122 234.544C233.26 236.952 226.385 239.071 226.385 239.071C226.385 239.071 217.984 241.725 212.414 242.305C207.741 242.792 200.384 242.305 200.384 242.305L193.916 241.4L186.025 239.589L178.781 236.614C178.781 236.614 174.138 234.503 171.408 232.733C168.423 230.797 164.293 227.041 164.293 227.041L157.308 220.056C157.308 220.056 153.221 215.093 151.228 211.518C149.355 208.158 148.571 206.111 147.347 202.463C146.416 199.686 145.82 198.119 145.407 195.219C144.923 191.818 144.764 189.729 144.764 186.293C144.764 181.04 144.833 178.192 145.407 172.97C145.754 169.808 146.83 164.949 146.83 164.949C146.83 164.949 147.883 159.271 149.029 155.765C150.064 152.6 151.62 147.874 151.62 147.874L155.371 139.337C155.371 139.337 156.925 134.994 158.217 132.481C160.312 128.404 161.575 125.948 163.909 122.003C166.442 117.721 167.713 115.233 170.118 110.878C172.512 106.544 176.715 100.271 176.715 100.271L183.054 90.5688L186.288 85.3945L190.815 77.5036L194.696 70.9064C194.696 70.9064 196.683 67.9574 197.801 65.9908C198.606 64.5744 199.15 63.8883 200 62.4981C200.913 61.0036 201.371 60.0318 202.199 58.4881Z" fill="black"/>
<path d="M201.161 131.575L200.644 129.764C200.644 129.764 201.854 131.081 202.584 131.963C203.157 132.657 203.53 133.012 204.007 133.774C204.426 134.445 205.175 135.456 205.175 135.456C205.175 135.456 205.812 136.665 206.335 137.396C206.995 138.32 207.304 138.88 207.888 139.854C209.409 142.393 211.38 146.581 211.38 146.581L215.649 155.377C215.649 155.377 217.888 160.019 219.53 162.88C220.863 165.202 221.525 166.638 222.805 168.989C224.243 171.629 224.838 172.815 225.992 175.591C226.864 177.688 227.84 179.817 228.496 181.282L228.524 181.344C229.159 182.76 229.355 183.198 229.862 184.697C230.345 186.125 230.734 187.147 231.043 188.622C231.337 190.029 231.689 192.244 231.689 192.244L232.077 196.901V200.652C232.077 200.652 232.032 203.83 231.689 205.827C231.335 207.892 230.266 211.001 230.266 211.001C230.266 211.001 229.447 214.004 228.585 215.787C227.755 217.503 225.998 219.927 225.998 219.927L223.41 223.031L220.435 225.877L216.886 228.407C216.886 228.407 215.216 229.592 213.967 230.275C212.896 230.862 212.279 231.167 211.251 231.828C210.094 232.57 209.93 232.486 208.918 233.415C208.207 234.068 207.57 234.623 207.097 235.464C206.83 235.939 206.206 237.002 206.206 237.002L203.682 235.009L200.95 233.188L197.022 230.922C197.022 230.922 193.916 229.358 192.106 228.076C189.712 226.382 188.524 225.194 186.544 223.031C184.695 221.012 182.275 217.469 182.275 217.469C182.275 217.469 180.549 214.979 179.817 213.2C179.043 211.319 178.265 208.155 178.265 208.155C177.911 206.64 177.644 205.641 177.502 204.276C177.359 202.91 177.359 198.841 177.359 198.841L178.523 190.951C178.523 190.951 179.168 187.988 179.817 186.164C180.582 184.014 181.295 182.922 182.275 180.861C183.07 179.187 184.853 175.419 185.697 173.77C187.968 169.335 187.633 169.718 190.023 165.346C190.023 165.346 192.982 160.11 194.803 156.468C196.369 153.337 198.218 148.5 198.218 148.5L200.644 141.898C200.644 141.898 201.645 138.925 201.808 137.008C201.897 135.951 201.808 134.292 201.808 134.292L201.161 131.575Z" fill="#00EA82"/>
<path d="M450.764 101.545C471.717 101.545 487.299 106.331 497.509 115.904C507.72 125.37 512.825 138.984 512.825 156.746C512.825 168.339 510.326 178.497 505.327 187.218C500.328 195.834 493.042 202.534 483.47 207.321C474.004 212.107 462.623 214.5 449.328 214.5C447.626 214.5 445.393 214.447 442.627 214.34C439.862 214.234 436.99 214.181 434.012 214.181C431.034 214.075 428.375 214.021 426.035 214.021C421.355 214.021 416.728 214.075 412.155 214.181C407.688 214.181 404.125 214.287 401.466 214.5V211.309C404.869 211.096 407.422 210.671 409.124 210.033C410.825 209.395 411.942 208.118 412.474 206.204C413.112 204.289 413.431 201.418 413.431 197.589V118.456C413.431 114.521 413.112 111.649 412.474 109.841C411.942 107.927 410.772 106.65 408.964 106.012C407.262 105.267 404.763 104.842 401.466 104.736V101.545C404.125 101.651 407.688 101.811 412.155 102.023C416.728 102.13 421.249 102.13 425.716 102.023C429.545 101.917 433.852 101.811 438.639 101.704C443.531 101.598 447.573 101.545 450.764 101.545ZM450.604 104.417C445.712 104.417 442.521 105.321 441.032 107.129C439.543 108.937 438.798 112.606 438.798 118.137V197.908C438.798 203.438 439.543 207.108 441.032 208.916C442.627 210.724 445.871 211.628 450.764 211.628C459.698 211.628 466.718 209.554 471.823 205.406C477.035 201.152 480.757 194.983 482.991 186.899C485.225 178.816 486.341 168.978 486.341 157.384C486.341 145.472 485.118 135.633 482.672 127.869C480.332 119.998 476.556 114.149 471.345 110.32C466.133 106.384 459.219 104.417 450.604 104.417ZM540.473 90.8556C544.94 90.8556 548.45 91.9724 551.003 94.206C553.662 96.3332 554.991 99.3113 554.991 103.14C554.991 106.969 553.662 110.001 551.003 112.234C548.45 114.361 544.94 115.425 540.473 115.425C536.006 115.425 532.443 114.361 529.784 112.234C527.231 110.001 525.955 106.969 525.955 103.14C525.955 99.3113 527.231 96.3332 529.784 94.206C532.443 91.9724 536.006 90.8556 540.473 90.8556ZM552.917 130.262V199.663C552.917 204.13 553.662 207.161 555.151 208.757C556.746 210.352 559.405 211.15 563.128 211.15V214.5C561.213 214.394 558.235 214.287 554.194 214.181C550.152 213.968 546.057 213.862 541.909 213.862C537.761 213.862 533.56 213.968 529.305 214.181C525.051 214.287 521.86 214.394 519.733 214.5V211.15C523.455 211.15 526.061 210.352 527.55 208.757C529.146 207.161 529.943 204.13 529.943 199.663V149.407C529.943 144.621 529.199 141.111 527.71 138.877C526.327 136.538 523.668 135.368 519.733 135.368V132.017C523.136 132.336 526.433 132.496 529.624 132.496C534.091 132.496 538.239 132.336 542.068 132.017C546.004 131.592 549.62 131.007 552.917 130.262ZM607.218 129.784C616.578 129.784 623.917 132.549 629.235 138.08C634.553 143.611 637.212 152.651 637.212 165.202H584.723L584.404 162.171H617.11C617.216 156.959 616.897 152.173 616.153 147.812C615.408 143.345 614.238 139.782 612.643 137.123C611.047 134.464 608.92 133.134 606.261 133.134C602.538 133.134 599.348 135.474 596.689 140.154C594.136 144.834 592.594 152.598 592.062 163.447L592.54 164.404C592.434 165.68 592.328 167.01 592.221 168.393C592.221 169.775 592.221 171.211 592.221 172.7C592.221 180.039 593.232 185.995 595.253 190.569C597.38 195.142 600.039 198.493 603.23 200.62C606.421 202.641 609.665 203.651 612.962 203.651C615.195 203.651 617.482 203.332 619.822 202.694C622.268 201.949 624.715 200.673 627.161 198.865C629.607 196.95 631.894 194.291 634.021 190.888L636.893 191.845C635.617 195.887 633.596 199.822 630.83 203.651C628.065 207.48 624.555 210.618 620.301 213.064C616.046 215.51 610.941 216.734 604.985 216.734C597.752 216.734 591.371 215.191 585.84 212.107C580.309 209.022 575.948 204.343 572.757 198.067C569.673 191.792 568.131 183.815 568.131 174.136C568.131 164.245 569.779 156.002 573.076 149.407C576.48 142.813 581.107 137.92 586.957 134.729C592.913 131.432 599.667 129.784 607.218 129.784ZM674.04 129.784C678.507 129.784 682.389 130.369 685.686 131.539C689.09 132.602 691.536 133.666 693.025 134.729C696.641 137.176 698.875 135.58 699.726 129.943H703.076C702.863 132.921 702.704 136.591 702.597 140.952C702.491 145.206 702.438 150.896 702.438 158.022H699.088C698.556 154.087 697.545 150.205 696.056 146.376C694.567 142.547 692.387 139.409 689.515 136.963C686.75 134.517 683.133 133.294 678.666 133.294C675.582 133.294 672.976 134.198 670.849 136.006C668.722 137.708 667.658 140.207 667.658 143.504C667.658 146.695 668.615 149.514 670.53 151.96C672.444 154.3 674.89 156.587 677.869 158.82C680.953 160.947 684.144 163.234 687.441 165.68C690.951 168.339 694.142 170.998 697.014 173.657C699.885 176.21 702.172 179.029 703.874 182.113C705.576 185.198 706.426 188.867 706.426 193.121C706.426 197.908 705.044 202.109 702.278 205.725C699.513 209.235 695.844 211.947 691.27 213.862C686.803 215.776 681.804 216.734 676.273 216.734C673.082 216.734 670.211 216.414 667.658 215.776C665.212 215.138 663.084 214.34 661.276 213.383C659.894 212.745 658.564 212.16 657.288 211.628C656.118 210.99 655.001 210.458 653.937 210.033C652.874 209.714 651.917 210.086 651.066 211.15C650.321 212.213 649.736 213.702 649.311 215.617H645.96C646.173 212.213 646.333 208.065 646.439 203.173C646.545 198.28 646.599 191.792 646.599 183.709H649.949C650.587 189.452 651.757 194.557 653.459 199.025C655.161 203.385 657.447 206.842 660.319 209.395C663.297 211.841 667.02 213.064 671.487 213.064C673.295 213.064 675.05 212.692 676.752 211.947C678.454 211.203 679.836 209.98 680.9 208.278C682.07 206.576 682.655 204.396 682.655 201.737C682.655 197.057 681.113 193.175 678.028 190.09C675.05 187.006 671.221 183.655 666.541 180.039C663.138 177.274 659.894 174.562 656.809 171.903C653.831 169.137 651.385 166.159 649.47 162.968C647.556 159.671 646.599 155.948 646.599 151.8C646.599 147.014 647.875 142.972 650.428 139.675C652.98 136.378 656.331 133.932 660.479 132.336C664.733 130.635 669.253 129.784 674.04 129.784ZM753.306 129.784C762.666 129.784 770.005 132.549 775.323 138.08C780.641 143.611 783.3 152.651 783.3 165.202H730.811L730.492 162.171H763.198C763.304 156.959 762.985 152.173 762.241 147.812C761.496 143.345 760.326 139.782 758.731 137.123C757.135 134.464 755.008 133.134 752.349 133.134C748.626 133.134 745.436 135.474 742.777 140.154C740.224 144.834 738.682 152.598 738.15 163.447L738.629 164.404C738.522 165.68 738.416 167.01 738.31 168.393C738.31 169.775 738.31 171.211 738.31 172.7C738.31 180.039 739.32 185.995 741.341 190.569C743.468 195.142 746.127 198.493 749.318 200.62C752.509 202.641 755.753 203.651 759.05 203.651C761.283 203.651 763.57 203.332 765.91 202.694C768.356 201.949 770.803 200.673 773.249 198.865C775.695 196.95 777.982 194.291 780.109 190.888L782.981 191.845C781.705 195.887 779.684 199.822 776.918 203.651C774.153 207.48 770.643 210.618 766.389 213.064C762.134 215.51 757.029 216.734 751.073 216.734C743.84 216.734 737.459 215.191 731.928 212.107C726.397 209.022 722.036 204.343 718.845 198.067C715.761 191.792 714.219 183.815 714.219 174.136C714.219 164.245 715.867 156.002 719.165 149.407C722.568 142.813 727.195 137.92 733.045 134.729C739.001 131.432 745.755 129.784 753.306 129.784ZM821.085 89.5793V199.663C821.085 204.13 821.829 207.161 823.318 208.757C824.914 210.352 827.573 211.15 831.296 211.15V214.5C829.275 214.394 826.243 214.287 822.202 214.181C818.16 213.968 814.065 213.862 809.917 213.862C805.769 213.862 801.568 213.968 797.313 214.181C793.165 214.287 790.028 214.394 787.9 214.5V211.15C791.623 211.15 794.229 210.352 795.718 208.757C797.313 207.161 798.111 204.13 798.111 199.663V108.724C798.111 103.938 797.366 100.428 795.877 98.1945C794.495 95.8546 791.836 94.6846 787.9 94.6846V91.3342C791.304 91.6533 794.601 91.8128 797.792 91.8128C802.153 91.8128 806.301 91.6533 810.236 91.3342C814.171 90.9088 817.788 90.3238 821.085 89.5793Z" fill="white"/>
<path d="M918.214 101.545C939.167 101.545 954.749 106.331 964.959 115.904C975.17 125.37 980.275 138.984 980.275 156.746C980.275 168.339 977.776 178.497 972.777 187.218C967.778 195.834 960.492 202.534 950.92 207.321C941.454 212.107 930.073 214.5 916.778 214.5C915.076 214.5 912.843 214.447 910.077 214.34C907.312 214.234 904.44 214.181 901.462 214.181C898.484 214.075 895.825 214.021 893.485 214.021C888.805 214.021 884.178 214.075 879.605 214.181C875.138 214.181 871.575 214.287 868.916 214.5V211.309C872.319 211.096 874.872 210.671 876.574 210.033C878.275 209.395 879.392 208.118 879.924 206.204C880.562 204.289 880.881 201.418 880.881 197.589V118.456C880.881 114.521 880.562 111.649 879.924 109.841C879.392 107.927 878.222 106.65 876.414 106.012C874.712 105.267 872.213 104.842 868.916 104.736V101.545C871.575 101.651 875.138 101.811 879.605 102.023C884.178 102.13 888.699 102.13 893.166 102.023C896.995 101.917 901.302 101.811 906.089 101.704C910.981 101.598 915.023 101.545 918.214 101.545ZM918.054 104.417C913.162 104.417 909.971 105.321 908.482 107.129C906.993 108.937 906.248 112.606 906.248 118.137V197.908C906.248 203.438 906.993 207.108 908.482 208.916C910.077 210.724 913.321 211.628 918.214 211.628C927.148 211.628 934.168 209.554 939.273 205.406C944.485 201.152 948.208 194.983 950.441 186.899C952.675 178.816 953.792 168.978 953.792 157.384C953.792 145.472 952.568 135.633 950.122 127.869C947.782 119.998 944.006 114.149 938.795 110.32C933.583 106.384 926.67 104.417 918.054 104.417ZM1028.34 129.784C1037.7 129.784 1045.04 132.549 1050.36 138.08C1055.68 143.611 1058.34 152.651 1058.34 165.202H1005.85L1005.53 162.171H1038.24C1038.34 156.959 1038.02 152.173 1037.28 147.812C1036.53 143.345 1035.36 139.782 1033.77 137.123C1032.17 134.464 1030.05 133.134 1027.39 133.134C1023.66 133.134 1020.47 135.474 1017.81 140.154C1015.26 144.834 1013.72 152.598 1013.19 163.447L1013.67 164.404C1013.56 165.68 1013.45 167.01 1013.35 168.393C1013.35 169.775 1013.35 171.211 1013.35 172.7C1013.35 180.039 1014.36 185.995 1016.38 190.569C1018.51 195.142 1021.16 198.493 1024.36 200.62C1027.55 202.641 1030.79 203.651 1034.09 203.651C1036.32 203.651 1038.61 203.332 1040.95 202.694C1043.39 201.949 1045.84 200.673 1048.29 198.865C1050.73 196.95 1053.02 194.291 1055.15 190.888L1058.02 191.845C1056.74 195.887 1054.72 199.822 1051.96 203.651C1049.19 207.48 1045.68 210.618 1041.43 213.064C1037.17 215.51 1032.07 216.734 1026.11 216.734C1018.88 216.734 1012.5 215.191 1006.97 212.107C1001.44 209.022 997.074 204.343 993.883 198.067C990.799 191.792 989.257 183.815 989.257 174.136C989.257 164.245 990.905 156.002 994.202 149.407C997.606 142.813 1002.23 137.92 1008.08 134.729C1014.04 131.432 1020.79 129.784 1028.34 129.784ZM1096.66 132.017V135.368C1094.53 135.368 1092.93 135.846 1091.87 136.803C1090.91 137.761 1090.97 139.09 1092.03 140.792L1133.99 203.173C1135.27 205.087 1136.6 206.842 1137.98 208.437C1139.47 209.926 1141.12 210.831 1142.92 211.15V214.5C1141.33 214.394 1138.88 214.287 1135.59 214.181C1132.39 213.968 1129.15 213.862 1125.85 213.862C1122.02 213.862 1118.09 213.968 1114.05 214.181C1110.01 214.287 1107.03 214.394 1105.11 214.5V211.15C1107.24 211.15 1108.78 210.671 1109.74 209.714C1110.8 208.757 1110.8 207.427 1109.74 205.725L1067.78 143.345C1065.97 140.686 1064.43 138.771 1063.15 137.601C1061.98 136.325 1060.55 135.58 1058.85 135.368V132.017C1060.65 132.124 1063.37 132.283 1066.98 132.496C1070.6 132.602 1074.22 132.655 1077.83 132.655C1081.34 132.655 1084.9 132.602 1088.52 132.496C1092.14 132.283 1094.85 132.124 1096.66 132.017ZM1092.99 176.051C1092.99 176.051 1093.04 176.37 1093.15 177.008C1093.36 177.646 1093.52 178.284 1093.63 178.922C1093.84 179.56 1093.95 179.88 1093.95 179.88L1087.56 188.016C1084.37 192.164 1082.62 195.993 1082.3 199.503C1081.98 202.907 1082.88 205.672 1085.01 207.799C1087.14 209.82 1090.06 210.99 1093.79 211.309V214.5C1091.76 214.394 1089.27 214.34 1086.29 214.34C1083.42 214.234 1080.6 214.181 1077.83 214.181C1075.07 214.075 1072.73 214.021 1070.81 214.021C1068.47 214.021 1066.4 214.075 1064.59 214.181C1062.89 214.181 1061.24 214.287 1059.64 214.5V211.309C1062.09 210.352 1064.43 208.969 1066.66 207.161C1068.9 205.247 1071.4 202.534 1074.16 199.025L1092.99 176.051ZM1138.3 132.017V135.208C1136.06 135.846 1133.72 137.229 1131.28 139.356C1128.83 141.483 1126.28 144.196 1123.62 147.493L1106.07 169.509C1106.07 169.509 1105.96 169.243 1105.75 168.712C1105.65 168.074 1105.49 167.435 1105.27 166.797C1105.17 166.159 1105.11 165.84 1105.11 165.84L1113.09 155.151C1115.96 151.428 1117.72 148.131 1118.36 145.259C1118.99 142.387 1118.51 140.047 1116.92 138.239C1115.43 136.431 1112.77 135.421 1108.94 135.208V132.017C1112.03 132.124 1115.16 132.23 1118.36 132.336C1121.55 132.443 1124.42 132.496 1126.97 132.496C1129.42 132.496 1131.54 132.443 1133.35 132.336C1135.16 132.23 1136.81 132.124 1138.3 132.017Z" fill="#00F48D"/>
</svg>
